<svg xmlns="http://www.w3.org/2000/svg" viewBox="0 0 1024 1024" width="1024" height="1024">
  <!-- Background: dark navy rounded square -->
  <rect width="1024" height="1024" rx="220" ry="220" fill="#131b2e"/>

  <!-- Book outline (gold) -->
  <g fill="none" stroke="#d4a843" stroke-width="28" stroke-linecap="round" stroke-linejoin="round">
    <!-- Left page -->
    <path d="M512 260 C512 260 480 240 340 240 C200 240 180 260 180 260 L180 740 C180 740 200 720 340 720 C480 720 512 740 512 740"/>
    <!-- Right page -->
    <path d="M512 260 C512 260 544 240 684 240 C824 240 844 260 844 260 L844 740 C844 740 824 720 684 720 C544 720 512 740 512 740"/>
    <!-- Spine -->
    <line x1="512" y1="260" x2="512" y2="740"/>
  </g>

  <!-- Audio bars - left page (cyan/teal) -->
  <g fill="#4dd9c0">
    <!-- Left page bars -->
    <rect x="270" y="520" width="30" height="100" rx="6"/>
    <rect x="310" y="440" width="30" height="180" rx="6"/>
    <rect x="350" y="380" width="30" height="240" rx="6"/>
    <rect x="390" y="460" width="30" height="160" rx="6"/>
    <rect x="430" y="500" width="30" height="120" rx="6"/>
  </g>

  <!-- Audio bars - right page (cyan/teal) -->
  <g fill="#4dd9c0">
    <rect x="564" y="500" width="30" height="120" rx="6"/>
    <rect x="604" y="460" width="30" height="160" rx="6"/>
    <rect x="644" y="380" width="30" height="240" rx="6"/>
    <rect x="684" y="440" width="30" height="180" rx="6"/>
    <rect x="724" y="520" width="30" height="100" rx="6"/>
  </g>
</svg>
